<mxfile modified="2024-07-05T18:36:50.729Z" host="app.diagrams.net" agent="Mozilla/5.0 (Windows NT 10.0; Win64; x64; rv:127.0) Gecko/20100101 Firefox/127.0" etag="GsIkBfZsYgu4DiySQMOY" version="24.6.4" type="github">
  <diagram id="l8hXMBHkgcEJcSW0mbfh" name="Page-1">
    <mxGraphModel dx="2811" dy="1078" grid="1" gridSize="10" guides="1" tooltips="1" connect="1" arrows="1" fold="1" page="1" pageScale="1" pageWidth="1169" pageHeight="827" math="0" shadow="0">
      <root>
        <mxCell id="0" />
        <mxCell id="1" parent="0" />
        <mxCell id="obtDEicu6mAJ0dzNfiAD-35" value="" style="rounded=0;whiteSpace=wrap;html=1;" vertex="1" parent="1">
          <mxGeometry x="800" y="40" width="355" height="235.56" as="geometry" />
        </mxCell>
        <mxCell id="obtDEicu6mAJ0dzNfiAD-48" style="edgeStyle=orthogonalEdgeStyle;rounded=0;orthogonalLoop=1;jettySize=auto;html=1;strokeColor=#788AA3;fontColor=#46495D;fillColor=#B2C9AB;strokeWidth=3;" edge="1" parent="1" source="8--HhbSZYtI3ddgJnD71-18" target="obtDEicu6mAJ0dzNfiAD-1">
          <mxGeometry relative="1" as="geometry" />
        </mxCell>
        <mxCell id="obtDEicu6mAJ0dzNfiAD-49" value="PUSH" style="edgeLabel;html=1;align=center;verticalAlign=middle;resizable=0;points=[];strokeColor=#788AA3;fontColor=#46495D;fillColor=#B2C9AB;fontSize=20;" vertex="1" connectable="0" parent="obtDEicu6mAJ0dzNfiAD-48">
          <mxGeometry x="-0.019" relative="1" as="geometry">
            <mxPoint as="offset" />
          </mxGeometry>
        </mxCell>
        <mxCell id="8--HhbSZYtI3ddgJnD71-18" value="Developer" style="shape=image;verticalLabelPosition=bottom;verticalAlign=top;imageAspect=0;aspect=fixed;image=data:image/svg+xml,PHN2ZyB4bWxucz0iaHR0cDovL3d3dy53My5vcmcvMjAwMC9zdmciIHZlcnNpb249IjEiIHZpZXdCb3g9IjAgMCA0OCA0OCIgZW5hYmxlLWJhY2tncm91bmQ9Im5ldyAwIDAgNDggNDgiPiYjeGE7ICAgIDxwb2x5Z29uIGZpbGw9IiNGRjk4MDAiIHBvaW50cz0iMjQsMzcgMTksMzEgMTksMjUgMjksMjUgMjksMzEiLz4mI3hhOyAgICA8ZyBmaWxsPSIjRkZBNzI2Ij4mI3hhOyAgICAgICAgPGNpcmNsZSBjeD0iMzMiIGN5PSIxOSIgcj0iMiIvPiYjeGE7ICAgICAgICA8Y2lyY2xlIGN4PSIxNSIgY3k9IjE5IiByPSIyIi8+JiN4YTsgICAgPC9nPiYjeGE7ICAgIDxwYXRoIGZpbGw9IiNGRkI3NEQiIGQ9Ik0zMywxM2MwLTcuNi0xOC01LTE4LDBjMCwxLjEsMCw1LjksMCw3YzAsNSw0LDksOSw5czktNCw5LTlDMzMsMTguOSwzMywxNC4xLDMzLDEzeiIvPiYjeGE7ICAgIDxwYXRoIGZpbGw9IiM0MjQyNDIiIGQ9Ik0yNCw0Yy02LjEsMC0xMCw0LjktMTAsMTFjMCwwLjgsMCwyLjMsMCwyLjNsMiwxLjd2LTVsMTItNGw0LDR2NWwyLTEuN2MwLDAsMC0xLjUsMC0yLjNjMC00LTEtOC02LTlsLTEtMiBIMjR6Ii8+JiN4YTsgICAgPGcgZmlsbD0iIzc4NDcxOSI+JiN4YTsgICAgICAgIDxjaXJjbGUgY3g9IjI4IiBjeT0iMTkiIHI9IjEiLz4mI3hhOyAgICAgICAgPGNpcmNsZSBjeD0iMjAiIGN5PSIxOSIgcj0iMSIvPiYjeGE7ICAgIDwvZz4mI3hhOyAgICA8cG9seWdvbiBmaWxsPSIjZmZmIiBwb2ludHM9IjI0LDQzIDE5LDMxIDI0LDMyIDI5LDMxIi8+JiN4YTsgICAgPHBvbHlnb24gZmlsbD0iI0QzMkYyRiIgcG9pbnRzPSIyMywzNSAyMi4zLDM5LjUgMjQsNDMuNSAyNS43LDM5LjUgMjUsMzUgMjYsMzQgMjQsMzIgMjIsMzQiLz4mI3hhOyAgICA8cGF0aCBmaWxsPSIjNTQ2RTdBIiBkPSJNMjksMzFMMjksMzFsLTUsMTJsLTUtMTJjMCwwLTExLDItMTEsMTNoMzJDNDAsMzMsMjksMzEsMjksMzF6Ii8+JiN4YTs8L3N2Zz4=;labelBackgroundColor=none;fillColor=#B2C9AB;strokeColor=#788AA3;fontColor=#46495D;fontSize=20;" parent="1" vertex="1">
          <mxGeometry x="62.78" y="659.9999999999999" width="82.44" height="82.44" as="geometry" />
        </mxCell>
        <object label="Gitlab Server" id="obtDEicu6mAJ0dzNfiAD-1">
          <mxCell style="shape=image;html=1;verticalAlign=bottom;verticalLabelPosition=top;labelBackgroundColor=none;imageAspect=0;aspect=fixed;image=https://cdn4.iconfinder.com/data/icons/socialcones/508/Gitlab-128.png;fontSize=20;fillColor=#B2C9AB;strokeColor=#788AA3;fontColor=#46495D;labelPosition=center;align=center;" vertex="1" parent="1">
            <mxGeometry x="40" y="403.55999999999995" width="128" height="128" as="geometry" />
          </mxCell>
        </object>
        <mxCell id="obtDEicu6mAJ0dzNfiAD-2" value="Cluster 1" style="pointerEvents=1;shadow=0;dashed=0;html=1;strokeColor=none;fillColor=#B2C9AB;labelPosition=center;verticalLabelPosition=bottom;verticalAlign=top;align=center;outlineConnect=0;shape=mxgraph.veeam.cluster;fontSize=20;labelBackgroundColor=none;fontColor=#46495D;" vertex="1" parent="1">
          <mxGeometry x="1030" y="67.24000000000001" width="102.8" height="49.2" as="geometry" />
        </mxCell>
        <mxCell id="obtDEicu6mAJ0dzNfiAD-3" value="S3" style="sketch=0;outlineConnect=0;fontColor=#46495D;fillColor=#B2C9AB;strokeColor=none;dashed=0;verticalLabelPosition=top;verticalAlign=bottom;align=center;html=1;fontSize=20;fontStyle=0;aspect=fixed;pointerEvents=1;shape=mxgraph.aws4.bucket;labelPosition=center;labelBackgroundColor=none;" vertex="1" parent="1">
          <mxGeometry x="320" y="141" width="75" height="78" as="geometry" />
        </mxCell>
        <mxCell id="obtDEicu6mAJ0dzNfiAD-38" style="edgeStyle=orthogonalEdgeStyle;rounded=0;orthogonalLoop=1;jettySize=auto;html=1;entryX=0;entryY=0.5;entryDx=0;entryDy=0;strokeColor=#2183fa;fontColor=#46495D;fillColor=#B2C9AB;strokeWidth=4;" edge="1" parent="1" source="obtDEicu6mAJ0dzNfiAD-6" target="obtDEicu6mAJ0dzNfiAD-35">
          <mxGeometry relative="1" as="geometry" />
        </mxCell>
        <mxCell id="obtDEicu6mAJ0dzNfiAD-79" value="Download repo" style="edgeLabel;html=1;align=left;verticalAlign=top;resizable=0;points=[];strokeColor=#788AA3;fontColor=#46495D;fillColor=#B2C9AB;textDirection=vertical-lr;labelPosition=right;verticalLabelPosition=bottom;fontSize=17;" vertex="1" connectable="0" parent="obtDEicu6mAJ0dzNfiAD-38">
          <mxGeometry x="-0.2548" y="3" relative="1" as="geometry">
            <mxPoint x="12" y="-61" as="offset" />
          </mxGeometry>
        </mxCell>
        <mxCell id="obtDEicu6mAJ0dzNfiAD-71" style="edgeStyle=orthogonalEdgeStyle;rounded=0;orthogonalLoop=1;jettySize=auto;html=1;entryX=0;entryY=0.5;entryDx=0;entryDy=0;strokeColor=#2183fa;fontColor=#46495D;fillColor=#B2C9AB;strokeWidth=4;" edge="1" parent="1" source="obtDEicu6mAJ0dzNfiAD-6" target="obtDEicu6mAJ0dzNfiAD-57">
          <mxGeometry relative="1" as="geometry" />
        </mxCell>
        <mxCell id="obtDEicu6mAJ0dzNfiAD-72" style="edgeStyle=orthogonalEdgeStyle;rounded=0;orthogonalLoop=1;jettySize=auto;html=1;entryX=0;entryY=0.5;entryDx=0;entryDy=0;strokeColor=#2183fa;fontColor=#46495D;fillColor=#B2C9AB;strokeWidth=4;" edge="1" parent="1" source="obtDEicu6mAJ0dzNfiAD-6" target="obtDEicu6mAJ0dzNfiAD-64">
          <mxGeometry relative="1" as="geometry" />
        </mxCell>
        <mxCell id="obtDEicu6mAJ0dzNfiAD-83" style="edgeStyle=orthogonalEdgeStyle;rounded=0;orthogonalLoop=1;jettySize=auto;html=1;strokeColor=#788AA3;fontColor=#46495D;fillColor=#B2C9AB;strokeWidth=3;" edge="1" parent="1" source="obtDEicu6mAJ0dzNfiAD-6" target="obtDEicu6mAJ0dzNfiAD-3">
          <mxGeometry relative="1" as="geometry" />
        </mxCell>
        <mxCell id="obtDEicu6mAJ0dzNfiAD-6" value="" style="shape=image;verticalLabelPosition=bottom;verticalAlign=top;imageAspect=0;aspect=fixed;image=data:image/png,iVBORw0KGgoAAAANSUhEUgAAA6wAAAPACAMAAAAG0wRXAAAAY1BMVEUAAAAaunMcHyocHyocHyocHyocHyocHyocHyocHyocHyocHyocHyocHyocHyocHyocHyocHyoaunMaunMaunMaunMaunMaunMaunMaunMaunMaunMaunMaunMaunMaunMaunOaVXfJAAAAIXRSTlMAQED/gMAQ8CDgYKDQMHCwUJCwUJBwMNDgYCCgEPCA/8BO+725AAAqOklEQVR42uzdjVrbRhqGYVlj/JeEkIQQG2yPz/8od6Gtri4LRrY1eGZ03+fwtFV5v3EDAAAAAAAAAAAAAAAAAAAAAAAAAAAAAAAAAAAAAAAAAAAAAAAAAAAAAAAAAAAAAAAAAAAAAAAAAAAAAAAAAAAAAAAAAAAAAAAAAAAAAAAAAAAAAAAAAAAAAAAAAAAAwJUsmtceGyA77ddp81q83zZAVhbfQ3gj1rjbNEA+ZtMQ3o41xj+TBsjEahneifXFT5+ukIX2JoSjscbd3qcrXN3iSwhHY32x9ukKVzadh6Oxdg4PDXA1d8sQPoq18+S/heFKvt2EcEKscbdvgM83+xFCz1g7618N8Mlu5+GEWDsHf8aBT9UuQzgr1miBCJ9ocRPC2bHG3e8G6CTeFp4fqwUifJbVPFwSqwUifI72awiXxNqxQITUh3AXxmqBCOnNpvMwQKydg09XSHYIN0ysnSefrpBkWzhErBaIkNTsSwjDxGqBCIkP4QaO1fEcJDqEGyxWC0RIuS0cMFYLREh3CJcw1s7an3Hg0kO4gWO1QIRE28KhY7VAhMTbwvSxer4fzj6ESxir4zkY7hAuTawWiJDgkf3PjdXz/XDOI/vJYrVAhATbwhSxWiBC4m1h+lg93w8nHsKljdUCERIcwqWI1QIREm8L08fq+X44/ZH99LE6noMBDuHSx2qBCBdsC/OM1QIRXm0L843V8Rz8+xAu61gtEOGfQ7jcY/V8P7w8sl9CrBaIjN1qGUIhsVogMmbP28KCYvV8P2P1vC0sK1bHc4zTdB7Ki9UCkfG5W4ZQZKwWiIzL4iaEYmN1PMd4zH6EUHKsFoiMxe08pPFl1rw2WcfLWCAyXu3XkMbNt+Ytv3fxQp7vZ5QW30May7vmHduneCELRMZnNg1pzKez5n0Ph5jGwacrlVol+1hdNMf9WscheL6fcWhvQhpf2+ZD2/0uDsACkRFYfAlpzFdNL49PcQAWiFRvOg9pTGdNX5M/cRCO56jY3TKk8X3RnGKziwOwQKRa325CGsu2OdF2H4dggUiVZsk+Vm+bMzz+jAPwfD8VSrYt/DFrerFAhD7aZbptYS8WiNDH4ibdtvAi2/s4BM/3U4mE28Kmn+QLRMdzVGGV8BCuFwtEuO4hXNsMZZgFouf7KVq6Q7hV04sFIvQxS7ktHNbkEIdhgUiJVtfeFl5jgej5fsrz7UqHcB0LROhjdu1DOAtE6GWawbbwqgtEz/dThrtk28JFk9pvx3OMx+Lah3AWiNDH7EfG28J+Hi0QGYPbzLeF/fxyPEft8jyEs0CEVxbfMz2EO8bz/YxP0kf2e7FAhLwf2U9ns45DsEDkNBU/sv+stAWi5/t5V92P7Je4QHQ8x1scwvWQ+Pl+C0T6KHRb2PsQzgIRynpkv8QFouM5OsUewt02J7FAhMIe2bdAhKq3hf3sPd9PmbJ9ZN8CESo7hMvq+f6DT1eK2xbOmrxtPN9PSUp4ZD+Z7TCfrhaIvCj1EG7VFCHZAvG+AdvCAhaI/i8TY35k/29FPN/v7zc4hCtigWgZQSHbwkI+VodZINockl47nm1hwuf7rfkpNtabsj5WL1wgupOjKTXWZXEfqxcuEF2gU2aseW8Lh14g+nU5XhQZa/bbwrMWiDZLHFdgrJkewqVaIHqPlL8VF2u+h3DneHyKH/HSN38rLNZ5QdvCyxeIHiLlXwqL9UvJf645eYHo16n4HyXFWt62sJ/t3ukqPZQTa5nbwr4LxCG2hZX+s4x/FBNrdR+rJy4Qd5uPz4UbuFA7ukO44Z/v328//t1MsXKxduzbwr4LxPMP4VbzIFYG0Nb1yP6nLxDXkx7nwmJlCO04D+EGer5/97vH72aKlWG0toXnLxDvtx+/bSVWhtLaFp67QDw89PjdTLEymHbEh3AXLRDXv3r8bqZYGVA76kO4sxeIu32Pt63EyqDaWh/ZT7pAfNp+/LuZYmVgbb2P7F9PuwxBrAyttS1M8buZYmV4rW3h8L+bKVZSaB3CDWo1D2Ilg1hH+uea0343U6zkEKt/r374u5liRazZe94WihWx5m+1DEGsiDV77U0IYkWs2XveFooVseZvOg9iRaz5u1uGIFbEmr3FTQhipRFr7p63hWLlv8Saudt5ECsvxJq3aQhi5S9izZtY6Yg1b2KlI9a8iZWOWPMmVjpizZtY6Yg1b2KlI9a8iZWOWPMmVjpizZtY6Yg1b2KlI9a8iZWOWPMmVjpizZtY6Yg1b2KlI9ZzPWz2Pw+HGMVKReqL9WF/iH8RK1XJO9aHyRHb5v893q9jjGKlRnnHeohHTJrXNocYo1ipVEWxbtYxipV6VRPrc6pipWaVxDr5E6NYqVsVsW6fYhQrtash1skuipX6VRDrfYxiZQSKj3X7J4qVUSg91oddFCvjUHisv3ZRrIxE2bFuYhQrY1F0rJsoVsaj5Fg3UayMSMGx7qNYGZOCY41iZVTEKlYKIVaxUgixipVCiFWsFEKsYqUQYhUrhRCrWCmEWMVKIcQqVgpRYax/Di/ESmWqinX3cz/ZNp2HjVipSD2xru8fmtfESkUqiXX39LpUsVKbKmLd7bfNa2KlNhXE+naqYqU25cf69HaqYqU2pce6njRvEyu1KTzWn9vmHWKlNmXHum/eJVZqU3Ssm+Z9YqU2Jcf6uzlCrNSm4FifmmPESm0KjnXSHCNWaiNWsVIIsYqVQohVrBRCrGKlEGIVK4UQq1gphFjFSiHEKlYKIVaxUgixipVCiFWsFEKsYqUQYhUrhRCrWCmEWMVKIcQqVgohVrFSCLGKlUKIVawUQqxipRBiFSuFEKtYKYRYxUohxCrW/7BzL7ltA0EURQmV/rLzGSaD7H+ZQYygoRiOE9sc1GueswMBuhKbrCIhxCpWQohVrIQQq1gJIVaxEkKsYiWEWMVKCLGKlRBiFSshxCpWQohVrIQQq1gJIVaxEkKsYiWEWMVKCLGKlRBiFSshxCpWQohVrIQQq1gJIVaxEkKsYiWEWMVKCLGKlRBiFSshxCpWQohVrIQQq1gJIVaxEkKsYiWEWMVKCLGKlRBiFSshxCpWQohVrIQQq1gJIVaxEkKsYiWEWMVKCLGKlRBiFSshxCpWQohVrIQQq1gJIVaxEkKsYiWEWMVKCLGKlRC9Y/324xXfl9eIldn0jrU3sTKItTexMoi1N7EyiLU3sTKItTexMoi1N7EyiLU3sTKItTexMoi1N7EyiLU3sTKItTexMoi1N7EyiLU3sTKItTexMoi1N7EyiLU3sTKItTexMoi1N7EytIv1cF4Ydg9iZWgT67A/Ljw536rEytAv1jpdF5bluD+VWLnTKdbhwcl1+XKpEit3esZa9XnjR9fHQ5VY+UPXWOu05aPr8VYlVp5pG2vVZbNH10+nKrHyXONYqw6PywbtLvVErPypdaxVt81dC58PNYiVe81jrdN+2ZLj17onVu50j7Xq8mXZjOupnhErQ/9YtzOB+PJsoVj5LSHWqq8bOLqeP9dfiJUnGbHW6dMyt1dnC8XKLyGxzj6BeL3Uq8TKssTEOvME4u5Q/yRWgmKddXnuf2cLxUpQrFMuz/3/YVWsBMVadZjs6Pq2RTixEhRr1W2io+vbZwvFSlCs80wgvmu2UKwExTrLBOJ7F+HESlCsMyzPfWS2UKwExZq+PPfR2UKxEhRr8gTicV8fJVaCYq26hD7GuZ5qBWKl/cPE9OW5lWYL538EzcuSxnSyJxDPt1rDNoa7eM6X9Dc/WrDm5V/08tw6x4FNLSTxstwbKxnf1cdDrWCiG210ttIji8jX96+0CDfVIyxaW2cYIPD1/evMFm709VT8Vd6YXfsJxN1lgx+aCazzJxM0gbjOIty0Cw10ttJqWMjy3HG/pU/LdDb0X3Pd2nUE09nIBOLuwWwh+fY/2bmj3aaBKAigkRs7G7sh8P8/ywMItbxQpLraufecb7Ase3dm6p+Ptj37pprqN4+bbCF1PConEHfZQkop+0SXfg/RU81vxU3HiIrGs9yD3eDsjKaK3W8sPW6laOq85MC4/C027+FnlQ+SyZOkhDoJxHYdBZqK75G1bP/RVHRDezwLfBpA/QRi58UamgpdFdvvZY6zoXJ5zsoqXYUlEO2X01jU4x/2aoGuH5ZG9iEigRh6HAbdLkO2H6kXTRATM9jbRzigT4AvPhwJKQnEY2tfO4D6pbMqhT6IKc8tRvYh5DJzHe1HaCAlJvS/J6/jmPqEGv6tR3mu5nAqpJTnXhfZQggpjT5HyNsCUpz5FZrxHQ4xTkwghpxwQYwTb06M7EN4ec7IPkSk/YzsQ0aOXrYQIhpqE3f0IMaJ3e+Q9jukOPHmM2RXBmKcuFdmZB9SynOyhZBSnotZGYcU43iJ4WeV5pb1JYJsIVz2gG9h2UL4fc0yN0U4eBNgmJgiHLyPBk5KthA+N4FoZB/eCJ3vV4SDmPKcbCHEJBCN7EPVBKIiHHxOeU62ED4itTxnZB9i5vsV4SBmvl+2EIokEGULISKBqAgHEeU5RTiIKM/JFkJGAtHIPsw6368IB3nlOdlCiEggGtmHjASibCFElOdkCyGiPGdkHzLm+/2sQsR8v2whRCQQZQshIoGoCAeXS0J5TrYQfpm8PCdbCH/MnEA0sg/vTTrfrwgHX22sRvYhxPe7kX0Icb3JFkKG7ZAthBCPVREOQux3RTjIsF1vsoWQYTyN7EOI5VURDkLsN9lCyLBdZQshxFgV4SDEcleEgxDfbkb2IcN2GNmHEI9VthAAAAAAAAAAAAAAAAAAAAAAAAAAAAAAAAAAAAAAAAAAAAAAAOAne3e63LithGG4C03sG3n/N3tyJslUDJFsgJIIjf09fxNrrCq+5tYEAQAAAAAAAAAAAAAAAAAAAAAAAAAAAAAAAAAAAAAAAAAAAAAAAAAAAAAAAAAAAAAAAAAAAAAAAAAAAAAAAAAAAAAAAAAAvrms/o9eQ/1CP4j7eV8ZJlBLTfyb11twdFUuUVv+zepYvvkGnMOiE/+H1kvIBDBKfZWp4UrlHWlzJDr8rFYtjg4Z1XLUGPlZ4YtLzNDvYkK1vMvW4ghgBH+l6Yu18iGtaEjQfEIHOmA8N7yhTpVbSvjiEsVfLXRMVT6V0Cu8Ktbg+ZR21MsslgV2MUd9tCr1Cdxa6LZYg2dZXQngYqxDG5stQ6nKudKuhVuBejjLDU13xaoS9/GBAC7FOrixRepQLHfyivZoblhHHdLjj90Uq9m4X/rmV9jgXbGObmyVJE7zgM107SITyRZurXRPrDnxkGoI4Fqs2XO3SOeC5SE+06OVW0tHVq2N7ol1tTzI4tQVrsUaWNCfjYk8ygZ6FLmlqCFeRE7mnlgDXxCxc4ULsUYW9GdjEl8Q5A+S799EbthMt8Sq+JKE2zgwHGvkQYmOuMT8olrz4Nnyyq1Ct8SaLV9jMdUEg7HG620J2+1zn1iE+qRLUpXuiTXxVRb7VhiKNfI4L541tqz+xY7UWkd2RZob3twT68L7tN6Wv0St+YjHaSt0xiqU5flYGDlf1UXRb6pU3pWpZc7u34jJKLolVsePbAyO/sOtW+IduN0KT8WqF0X/yiHagZutmnf4YKhhguZH1gzci5FPcBe6J9Z48I1bLmhuRAK4HGsKpnPg1dCDrX9AiZTmB7rnI1Xn8beme2J1Aze23Gb5PywOgkEw/FRN4R0rtZQwSSzPEZSe+UHTd9fG3RTrdnRaLY9MYywCJMLAauc13k0+weR0vuHWg8Lka7zyXZuVborVC622XOV/aAIQCI/TdNaa5IkjbehcZLmfwK3SUfRGN8WaH3450Wpx2waeiTXlwYEDFg+CI4lCxxlp5VYWL2wluivWcnxLSxgcKQQguTSnGqVkEsstyB+b+iZ+hbs2Nt8W6ybsWA9HMhMBiC49o+qEy7JhtyhZvTJ2uAn/PdBtsWrhyOCwVkwaQoe9VmXxvAjftXOT95t6+ClV47lRaVqs1MngSjD0EFrtPWtdTneshS6moLqWjTAnf0W8uTFW/ooAXuniWmSnsfqjEGRV/sthTlZWWrmVaVqsOLiF17o4TK5Ptln1xNCr46/M0NNvznJjoUmx4hIvXPXqbXY52Wbj8WfKYsfVoe1o/6n39rnzzlk9AcyPNRxvs8Y+8zRJPjwql5eNWLhhzdRYeSGAUXdus6twt1TQhGj6Zqji7l2ble6NNXIDawLDR8canztzKz29lZ0ujRfGDO+YYGptBDA5Vne8zVr+ytEQ17W174z9b8KY4T2zwS2PR8phcqx0uM1mIRmR7/lxY7nhhTHD2566aSUcC8OHxlqevcgS+QtzFI0k0P2xbrzHRowowSfGGp9dWaj0/fzC5ypNiNXxARsDHoKDT4s1CWMNItW5Z058xpsZsVLkYx7BwmfFyg0alTtnlZ3lE5mmxOosn/K1YAgRPiTWLH2grPcDAh9baE6sVFimF1wihg+IVfGLeToU+YimWbFS5B62BqxmCJNjDfxqwuOve6yZF6tJ3CmhV5ga68KvRscy71tpXqxkNHeLOB6G7xSrEm/ztDaaEqt8JIyRCfi5sZLmR4mmxSq/+hwDifBTY134UZwb6/gL3yvOXeH7x5p5zzoh1pbS3M9iHBG+e6zG8x7rZsTaypFP4DF1+FmxVt6X5sTaMiXxEbzwEX5UrIWPLLNibbm2V9QKPzHWbPmQmhdry4ToeQeWgIHJsa7cWJ7lqNEzKmTN1FhbriNYiwl/mDwbTO+y8Rk9PdaWWTfNe/CKVpgTq+OGovdY+VyZEKtMLYkbePk5TIqVbjoVc5YFeUqsMhMq78GLH+HuWPU9i3FqlnjzmbH+6tXzL3g5DsyMNd6yu1i4lTU36sfG+s+EE1YZhrmxBm44ej3FrULGciN8cKxEwTIzXo4DE2PNjxm9hPzWx5UbNn9yrOQSt7CgGtwZK/n3HwfX/duqGzeS+eRYySRcD4apsca3XzYp3FIHG//20bGSsZjnh5mxru+ees3c2g4HENfeL5BmxEoBscLMWMm+90zMJD4MrfQ/LceNKbGSxRATzIw1cqPSK8Wz60iVG6k3Vjcl1opYYWasmVvqrWOGoTkL7Kvp4rWd8tpYF8QKM2OlxA1v3jhmWIU7sKov1o16ZJZiNStihT8n1sBvOxCW/xBsnU/L+SsDCdmKsVYOI7HiCXSYGit5bhUakLeB5+KUmLPuGy5WXa1Ksa7MI7VGXA2GubGGp9ZBWC2X7jHDpaOo0hWrJomyLP37xo7tID1Wi4C5sZJ+otbSDgpKY4byzETu30ePLv+/7H5qctRF4bEbmB1r5keFeph6csdF991Grdzwpic9b4RfbM+yH58tVx70swRwd6y0CQvPi4+ibNTT19q5nHAVdmryKHGwLMTa/MNJjQ8wVQK4PVbj+ZFXAw95qoExQznEIHwD4ehVJT6wHP+Jio7OKSxwCPNibctqaSel+ps1Yv/JdD+bbrNwCHp29Bo0H1rO4otZ2K/iKBhmxNoKvKsq2uWKF44J48gqKEkOu/AeXxx9sUbL3Bdr4gc6GNrnKt6hAbNjbeNq+U31rflXhPjL0KBTpIbjAz4u6m9l0yxYmt35o7rXq4r8wOJlcjApVop8SG9FKWWcUmrZdM+q19mOTUUF+WKU5hdY5PiZ0xaUoX+pEi3vKAQwKVZKLLt4iCnvh6p4m2flcfZ4kN8kPuf1XzzW+IZPjNVEfkYcG2GQr0c9/8fEZyU8G3iZxfpLMCnW5zffcLoT3EiixJ9RPCgZUsKtm8sUAcyMlQpfZNXpmGEi2SIEMRxXNbQTqzw6gXfIwZ8QKynLV2gjjhnKtHSea9LgKbQUK+XEV1i0CvNjJVN5mC3CLjJcfFBdH/0fMp/7lnVZLD/A2x7hj4iVaPU8Jhrh1DJSn1WcO8iW+2yG+mIlV3lQxQ1WmBVrywztbaKTLut6QwJh6mn4SFjnkQXTlOYBFit7w5RY5VzlVBtVCK4xHPrGEq1GVzdUkTvZBbtVmBxry4TEolQMtcpTI7SZ5cGnrPlMVVeWInUlscwXpArd9FfbxZ8LJMubPy81/4+9e91tGweiAEwWDrbdoEmgCyleh+//lFugaBBTkocjC6q8Pt9fo8RYniMyNCsv7k+9VF6VxNtL7ZtkIvxx+V4nu/mN/3x7uZ3UV3y3Cuf1/d/XpQnnn5fLx9FTTD3xv/6YVfX+9vPeYb9dXv5ZDOr7G3aA4fy+fVwuL39cLr/PuB+AT9bb5f3PCuPy8XO/cT8ul/cv7/gDMyoAAAAAAAAAAAAAAAAAAAAAAAAAAAAAAAAAAAAAAAAAAAAAAAAAAAAAAAAAAAAAAAAAAADAzqLL3ZB7BQCn5gP9lnJUAHBaLtGnySgAOClHXyWkFeCkerqWsBIGOKU4USUoADihkWa8AoDzsTSTFQCcD80VBQCno2nOKgA4HU0LFACcjmmbWYdyBQtlgOPRXKdmCuZegL+to5kRYQU4IUczEWEFOCNLlawQVoAzMomu2IiwApyTSVVWEVaAkzKWPnVRIawA5+U6ol9S0EohrADnprU2SimEFeCxIawADwJhBXgQCCvAg0BYAR4EwgrwIBBWgAeBsAI8CIQV4EEgrAAPAmGFfcXqxNzejNZqf1rruHeZ/vRh9VrjWeL/H97lUohyS0hzKIn+mMowarUnM34Z35bsvGKIi6bS5d7vOeBUQtbxbGHV41AsfbJ7f1bGDaXgOeWH6sPU+Hh4M1haUka/VymJZqbQ7/H2aqlzftuAg6VFU3D+LGE1udCiks1eXYMfFdjfzSeJxDxVL63xw0Tr7BjvrcXnRCtS8Ftbim4pLioZExLR9utQFp/Hn0miKAbzUdE0eMXR4q6Z6NqkxDwegX7jssecqpfW6EIMJlBcLT4wLaqVVBwnklTN04V4QR8dVnmRRd8R1hiWXspU6ZXUQBWnns36Za+nssx8/pwQt9YScyKOKFb8kPJxfaE2Rf+9sOpJUOM6Le6aSJVOSSW6ltTTWbvsxlIlM03KSuO2WvQkHJ3nJmqWo2JII1X03wmrKYJxPBNWYdcEqngl46gyqKezcm0zzWSmSQUdIKolU6MSBZOgwKQVJ1oSCfHQsAoH4v/skXeNZoZnFfx47XJAYkdzmW17XnLSWmIRjG5UC5dIaOAfSyiU+qPDaiwJWS8LayzLXbPLFpPHz2EuB8RYagurTiQ1yGrxVngv4AWSs57JqtxwbFhdIrHUS8JqpptdM963xTTM//nzWbi2JlFbWB1tEAS1yGPgBAtWiWSYrMrZeGBYM20yMmEVdE1Md20xpdnE/ITaA5KZKUrcpHwtPpGUE2RVIunVIRNtk8xhYQ20UWDDyncNs8Uk3F565sMWdC2vzxN5rwawrbVsSpYRZFXEMTsfcskfFNZAtGta9ZauMYK88Rc5qic0C0iiFbm9AcovlmsAvpZybwLkWZWvhEdaNpUScu5KmWhNiseENdAdQktYTUvX2O0rWT+v6hnRtcHSmtzSoyk4/RkNPXZJsstUj7Wcgbr9a1aQ1Xpky6S1cRFcRq2+0C4sltwfsAxmByi/SFcUelPXOKr027eXtHpGiwHhw+paz9L13Xqb1rg+zNqr33zP98dcRyts7v3nHSZ3tGKKLbNWyl7N+dHOc3VIWB2tmIIz9f2k7cPS1CzfuK912F6SIUYqOWvd59w5bgN08GqJD61rVf5UfdvRfiPaEZ3GupjoyloS+Il1iGqFCdU1aAurK1+luqTK0LhXnYJRFR1a/7DQzV1T3K0bW1RtHI4F82GdBtO8nixeCb6PL7Jagpcc8LXLVdCSyUnOO4+qMoq+6fWhGosJ6w7/RS5awRlKP7RdT72pa5Snyrhxeyk95fbSzbB2Wq0YaCYLT86Oglo6r1bErnnjNk6yg799apm06yj0zScdrTokrIPs2Kf/j71zyZoUhKEwbEFFkIdh/6vsQZ/Tg7LwmhCrPF3ccUv7U3wkhiTUKx8WVqesiMIIL7F0xZjhjbVYnOKHN0eQmgsGBoPvdFRYTVu5Ykc48k8jXHnBXhtW7E44uK+CI1ErLFLaZHGifaQFn8LqrWnLC5Jy14J3x2bOOx4YQhNhesZRCRrtWeCerb6B9R2w+nZ6B8elqNdgrWgdFJGJDCMt+K8E5WZOlEBv8fZILTgwrdC/qpjVoxwy2rukait7opA/AusGDqDAhLZMoJUWKS6SENM8wksngPjzLKAim7wN7qrCzPy1YMZtg1WgBIx2bSxpSKs1H4E1NFhlT6iHsIJV0xFimkbVeRvWKYMvCGEV8IRMa2NDh5pxALM2Dk35tJbcHna93KfCfATWDRyaSp+z4HNFNcQUR1pwG5AEFlppc4GeBJAD+8gKeUYUZ1mvGsEzY1B7Elb1YcWGdZdOaAWwJiPbV+0IL10Xe9adPPNrA+6MuHFHDiCjMXEiogDzANzg58A6t5DD8qebm+Wz2to/EvuJyfys6EVePttY9dxwyltN2lOkTAZuMs/I2OYf5J4F60Qio4RxtPK2DTs3xDSPtOAWICXKg7pY9nyP7Cyhar+XAx/DvHhaav634VGwRiL5jCY6CetYcK6tGWKaRlrwP3E9zwQMK8ssZzVY7amf61EjTN5JVRud/UmwOkJMsUjfLjb57oQPw/274k57AXEa1sLf1GA19YTHCKJLXNM6g8bTD4EVNJPlmtbEgFXPrd1H1bkYkFny7dfEZtKDdTuxfxv8xOKtl9QemfbHwJrBFys3slYArPeEmMJICxYDsjCcErzbFz1Yc2lbz6nP/sV28GoFiZrfhHXm+f7YMFsdWB3HVs7HX/WHxZx2D+aOaaVW+C5yt21Tu3jBt01UoKPq/D1YcfNOOVS7DqyZ8xU6/fxlVHJAcsPGSANBrh9W3P9u7a2wcu19YAEVnZ+DFW8xvbe2TTqwmnR9EcWRFiwHxGLPikV76oEVtWxX6zMQ2xkXkRoKac7fhZXpBWPaixKs9nqIaR9pwXJAdvjPedHk2gMrCEV4hXw1XKOVqC2/zPlrsFrkbQpKZACs+iGmMC6jkgOSwJ7IXpCKsE70IkbyuLjuA/Yh92lb74RVsdAbH7IowbpdDTHNIy24A5CqDWvWg3VvweqBPyga+p8cQZXJrR+DFb+zPNlICdZcLhr9aVSdd8CKeuthlQbtYlixISAwbudXViIo/A2rD2vqiKOCiQOwqoWY4riMqgdW0tbcDSsmqj+iuB6GFrX5n7b8OVgr1yrhIRKAtW8+j9pHWnAHrJm0tcthhS9nAcQMHfcYSCvo1vtxWJd+WKsWrMZfCjGFUXXeAat9MqzmfljxvT9Y1arDetdKTxxY9UNM80gL/h1YXeOljQqs8quKq/0ErNQP686BVT/ENI204N+BdVeDFZfCxYkYmvKPw2oW/DkaR9X5w2Ct/wmsLxduIBX747AeSRzhpQErG1b5B6BNdF3ut2E1Ffq4YaQF/xCss7ARjXzlRxfoqtJvwwpDTPO4jOqXYL0xGuxMS+vi6ZqWe2H1/UBNerDi/Bo3wktPT4oAsPadtKsFKjJriLhNhQhr++g5a/roOSvWcp5hlUdasDasae/U9oUMJqeRbgi0uikQUFkfnsEU5OmGWPG8B4QbacHaucHOaIp0azki6B3eNzRW3IBLXPVgxZarfD03GPm5I7ykC0hVTwC7veoG2xj50Fh5PgN2+2TVTe72J2YtWHEEyY6qc/V61vpNWMEyLqjQVT60NxxFN9F7BU1YMWpMOVKvZ71sPNNIC1bvFFEeBGtpbSQ7o0OeaocUfKZj1WHFvWjkLehMD6x4MfkRXrq1BxOtX4cVtEXTaHBiSWFxboGOSvfBari3/eEBAKyKISY3LqPS725I7uuw4s6ZmTqX7aKTpeoK8IN1Ya3AOvF3Py1Y8VUsYaQF39A32H8fVtyT2ncu26BUqxU9vSreB+su21jB1SAKsOL7rexIC76jIz/Fh8AaqU3U0ufGWrFlxlczz8qw4teWb1ERwKoXYkrjMqo77rqh/SGw7idLc6aunTrp/c25tIbSh9WULu99O06aOqzu/W+WR9X5PbfIlfwMWMNZ7Kbw2zCp3EGHEUg3wpq6gtiVXrTow5rfz6wbacEyQLCZeQSs22krtsQ2rToP482u3gjr3LPL2OPDAFa9EFMYl1HpADLTfaa142Aw0Kvy6bLdOgzrYjqUtGHl+MG1I14XDIBVLcRkx2VUQlgxFstd71Ii84u17fIF+RZTSTWmtn8Q1oXEWUyOXuUArDL5N5toGmnBUlgxF9YoSRy+jAWYTgQzXrVthvL8VFgjgT2KM6H5Fli340+eR1qwGqy53OYIk/RuRo9WZW7QDLUWuDcttD0UVlNJ6Aj785/C3hceX40bl1HJYcWm1RuG8tJkm4S0LvjBRKJoS/ZwuVueo7bcfXTTgAosfThbEcCqF2IKIy1YD9ZcABpo+VfwLtyRN8IkxtKo/YasIsMaeBPglWFdgWmVeBQO/A4YVnlSY5lH1bkirGYnOa2rJyJ3HVbyWcJqbbw0ohWzWt+P66Mstmx7Yd0wCvgJPKFRCVbscYdxGZUmrCY02lZjbeXMHLRa7GIzgGNeObCHjp6OWhs0FCfy+kwvrBPboaWF/8hulGDFW8NIC9aF1dJRfjVQcTo3l/ReKZum8kRvVPEBMf5z5wIW+otdqCu/O0JlwzrxDpJyoaNqNk3FSkeFDGBVTBMZVee9sOKIDhX0aN7/sHd2uY6DMBg1WwiE8GfM/lc50ugqmquE+YJL+sRZAHIDBxzXLQw2d+nAtdA9NsgdHi3zk8P0os0CVu01uc5ptLYch2Wt4A0kge0BpAE7g0RlSFbFYlptwTNkxZccBgNURW8i0oVrouc3VjhwyADDzmjhqk1gMHRWc1HJ2he+bBvIan8IEf9A/sTRbFn7D3G1BWtkxUfElRbpHpsvyxTEAm8iTvsh94QCsvdL1OUS7T0VF1ubpedndaZhWa30e4tKZJGCNtYfgvP0C++C3HLQLFlxyXpdRjVfVrJyD2d7WaQ2h2evlQI43G4MUTFmd4digiMamYyJtckJKObsvUdQ6IJ3LBfSuKxJroTdUDEx822x17N0CFs1JhElY+rG0oHTNFnxtKy2YJWs+ifcflY+eWNr7lm1w1g2UVFBoVPNUdB3tyetWk8n3rqgOKgbqMfcswG1RmFPE2VFH2m1BatlxbbqYRxLFAWN6B1bD5BgXuD2lwCOjUFZswDK3KmypJJV1y+9LqNSyPq+rUciHItTKaWwVTdwyfIB7FWyRgHEqVMV6X1Z0yovfesH3/qlj2PJmnEVtmoHzjJLAyyrPg/WTxVbUsiqvklj/VuwVlaMYVHinsaS1UrhnAuDO7Qi611VyloFUED5XnH4T5EVlytXW7BaVkw6PtyvcSx50FWM5ZlFK39oXdXKWhgNPWuqjkLfkZXCKi9NkBVRVafUSCxRAKAvEXbUYdjMfgRsSS0rWZgH3+LUO9T7stbVFvwFWck3GSOYwVh8eCjArvpvfEwuSH5FdU0vK842SkexMBSjp+/JWlZb8HxZQY8aJsTxWIoTwbREz0lZntIMQQzQFewqo7ISSGm7mlVWxfi+rJRXeUkl64u6hqiLxRxwZEsA4BeIGGE2xUGtlrVsIMUGHdoIroWmywpHXJdRKWRVEJtgstHHEgNQapyUWQCbGRiuhkcaJCK9rCdVm2GUHYYZ9kL0ZVkprLZgTPtNpAFwX/0J51h0Gwc+u7IhHSVu0ufYE43h3fF/UzdL/8O1XziQyKuT9szSJThPEA9WjYJ9lZe+Sor5uO8X373qlL+6xZexsy30AcXeChZyTNrxWq9d2NBUkgsd0TC+NpYLDCbqTZKsy6i+jonVtRNXo5makvtYt/ZD3U2ZE7P9J+Zc46fDJrPX3E62Wk16aXv8094dpSYMBAEYJlfQapLG7Oz9T9mH0oBUhT4UnJ3vO0Eg/JDoZqadjss+f/71Klvrh9fX+P8ujgXn4qf7uhbHgnMRa1nnsIwqF7GW1X11noxYq7o6FpyNWKvaLKPKRqxF3cIyqmzEWlRzLDgdsRa1OxacjlhrWsMyqnTEWtPsWHA+Yi1p8tV5Qu5ZSd0yqoTEWtHFtOCMxFrQdffVeUZiree6W0aVkljLWXfTgnMSawHbdsz2uK3dtOCsxFrAHBFL39rWZ2P4ExNrAfHDfpvUxDq+a9wzISIpsY7vHAcrMzJz48bXPASPQazj6/HC4qBhGmId3xLP7V5Y8xDr+LQ6CLEOb4qnZrNcMhHr8NZ4ZvO+mopYh/cRjy0+tUlGrMPrj1N1xjCd6Z53mPHs8cu+mY8G72dqpznisPTm+Rfe12365q8aAAAAAAAAAAAAAAAAAAAAAAAAAAAAAAAAAAAAAAAAAAAAAAAAAAAAAAAAAAAAAAAAAAAAAAAAAAAAAAAAAAAAAAAAAAAAAAAAAAAAAAAAAAAAAAAAAAAAAAAAAIDHvgDwueFi0/+1oQAAAABJRU5ErkJggg==;labelBackgroundColor=none;fillColor=#B2C9AB;strokeColor=#788AA3;fontColor=#46495D;" vertex="1" parent="1">
          <mxGeometry x="517" y="290" width="146" height="149.11" as="geometry" />
        </mxCell>
        <mxCell id="obtDEicu6mAJ0dzNfiAD-30" style="edgeStyle=orthogonalEdgeStyle;rounded=0;orthogonalLoop=1;jettySize=auto;html=1;labelBackgroundColor=none;strokeColor=#FF0000;fontColor=default;strokeWidth=4;" edge="1" parent="1" source="obtDEicu6mAJ0dzNfiAD-11" target="obtDEicu6mAJ0dzNfiAD-6">
          <mxGeometry relative="1" as="geometry" />
        </mxCell>
        <mxCell id="obtDEicu6mAJ0dzNfiAD-82" value="upload images" style="edgeLabel;html=1;align=left;verticalAlign=bottom;resizable=0;points=[];strokeColor=#788AA3;fontColor=#46495D;fillColor=#B2C9AB;fontSize=17;labelPosition=right;verticalLabelPosition=top;textDirection=vertical-lr;" vertex="1" connectable="0" parent="obtDEicu6mAJ0dzNfiAD-30">
          <mxGeometry x="0.5629" y="1" relative="1" as="geometry">
            <mxPoint x="1" y="67" as="offset" />
          </mxGeometry>
        </mxCell>
        <mxCell id="obtDEicu6mAJ0dzNfiAD-31" style="edgeStyle=orthogonalEdgeStyle;rounded=0;orthogonalLoop=1;jettySize=auto;html=1;labelBackgroundColor=none;strokeColor=#788AA3;fontColor=default;strokeWidth=3;" edge="1" parent="1" source="obtDEicu6mAJ0dzNfiAD-11" target="obtDEicu6mAJ0dzNfiAD-3">
          <mxGeometry relative="1" as="geometry" />
        </mxCell>
        <mxCell id="obtDEicu6mAJ0dzNfiAD-11" value="Gitlab Runner" style="shape=image;html=1;verticalAlign=top;verticalLabelPosition=bottom;labelBackgroundColor=none;imageAspect=0;aspect=fixed;image=https://cdn0.iconfinder.com/data/icons/phosphor-regular-vol-3/256/gitlab-logo-128.png;fontSize=20;fillColor=#B2C9AB;strokeColor=#788AA3;fontColor=#46495D;" vertex="1" parent="1">
          <mxGeometry x="355" y="606.16" width="128" height="128" as="geometry" />
        </mxCell>
        <mxCell id="obtDEicu6mAJ0dzNfiAD-42" value="Internet Global" style="outlineConnect=0;dashed=0;verticalLabelPosition=bottom;verticalAlign=top;align=center;html=1;shape=mxgraph.aws3.internet_3;fillColor=#D2D3D3;gradientColor=none;strokeColor=#788AA3;fontColor=#46495D;fontSize=20;" vertex="1" parent="1">
          <mxGeometry x="550.25" width="79.5" height="54" as="geometry" />
        </mxCell>
        <mxCell id="obtDEicu6mAJ0dzNfiAD-46" style="edgeStyle=orthogonalEdgeStyle;rounded=0;orthogonalLoop=1;jettySize=auto;html=1;entryX=0.5;entryY=0;entryDx=0;entryDy=0;strokeColor=#788AA3;fontColor=#46495D;fillColor=#B2C9AB;strokeWidth=3;" edge="1" parent="1" source="obtDEicu6mAJ0dzNfiAD-43" target="obtDEicu6mAJ0dzNfiAD-6">
          <mxGeometry relative="1" as="geometry" />
        </mxCell>
        <mxCell id="obtDEicu6mAJ0dzNfiAD-43" value="" style="sketch=0;points=[[0.5,0,0],[1,0.5,0],[0.5,1,0],[0,0.5,0],[0.145,0.145,0],[0.8555,0.145,0],[0.855,0.8555,0],[0.145,0.855,0]];verticalLabelPosition=bottom;html=1;verticalAlign=top;aspect=fixed;align=center;pointerEvents=1;shape=mxgraph.cisco19.rect;prIcon=router;fillColor=#FAFAFA;strokeColor=#005073;fontColor=#46495D;" vertex="1" parent="1">
          <mxGeometry x="545" y="140" width="90" height="90" as="geometry" />
        </mxCell>
        <mxCell id="obtDEicu6mAJ0dzNfiAD-54" value="Virtual Machine" style="rounded=0;whiteSpace=wrap;html=1;fillColor=#f5f5f5;fontColor=#333333;strokeColor=#666666;" vertex="1" parent="1">
          <mxGeometry x="835" y="100" width="170" height="160" as="geometry" />
        </mxCell>
        <mxCell id="obtDEicu6mAJ0dzNfiAD-47" style="edgeStyle=orthogonalEdgeStyle;rounded=0;orthogonalLoop=1;jettySize=auto;html=1;entryX=0.5;entryY=0;entryDx=0;entryDy=0;entryPerimeter=0;strokeColor=#788AA3;fontColor=#46495D;fillColor=#B2C9AB;strokeWidth=3;" edge="1" parent="1" source="obtDEicu6mAJ0dzNfiAD-42" target="obtDEicu6mAJ0dzNfiAD-43">
          <mxGeometry relative="1" as="geometry" />
        </mxCell>
        <mxCell id="obtDEicu6mAJ0dzNfiAD-50" style="edgeStyle=orthogonalEdgeStyle;rounded=0;orthogonalLoop=1;jettySize=auto;html=1;entryX=0;entryY=0.585;entryDx=0;entryDy=0;entryPerimeter=0;strokeColor=#788AA3;fontColor=#46495D;fillColor=#B2C9AB;strokeWidth=3;" edge="1" parent="1" source="obtDEicu6mAJ0dzNfiAD-1" target="obtDEicu6mAJ0dzNfiAD-11">
          <mxGeometry relative="1" as="geometry" />
        </mxCell>
        <mxCell id="obtDEicu6mAJ0dzNfiAD-51" value="&lt;font style=&quot;font-size: 20px;&quot;&gt;gitlab-ci&lt;/font&gt;" style="edgeLabel;html=1;align=center;verticalAlign=middle;resizable=0;points=[];strokeColor=#788AA3;fontColor=#46495D;fillColor=#B2C9AB;" vertex="1" connectable="0" parent="obtDEicu6mAJ0dzNfiAD-50">
          <mxGeometry x="-0.0015" y="1" relative="1" as="geometry">
            <mxPoint as="offset" />
          </mxGeometry>
        </mxCell>
        <mxCell id="obtDEicu6mAJ0dzNfiAD-21" value="" style="image;sketch=0;aspect=fixed;html=1;points=[];align=center;fontSize=12;image=img/lib/mscae/VM_Linux.svg;labelBackgroundColor=none;fillColor=#B2C9AB;strokeColor=#788AA3;fontColor=#46495D;" vertex="1" parent="1">
          <mxGeometry x="850" y="198" width="50" height="46" as="geometry" />
        </mxCell>
        <mxCell id="obtDEicu6mAJ0dzNfiAD-22" value="" style="image;sketch=0;aspect=fixed;html=1;points=[];align=center;fontSize=12;image=img/lib/mscae/VM_Linux.svg;labelBackgroundColor=none;fillColor=#B2C9AB;strokeColor=#788AA3;fontColor=#46495D;" vertex="1" parent="1">
          <mxGeometry x="850" y="116.44" width="50" height="46" as="geometry" />
        </mxCell>
        <mxCell id="obtDEicu6mAJ0dzNfiAD-7" value="" style="image;sketch=0;aspect=fixed;html=1;points=[];align=center;fontSize=12;image=img/lib/mscae/VM_Linux.svg;labelBackgroundColor=none;fillColor=#B2C9AB;strokeColor=#788AA3;fontColor=#46495D;" vertex="1" parent="1">
          <mxGeometry x="930" y="116.44" width="50" height="46" as="geometry" />
        </mxCell>
        <mxCell id="obtDEicu6mAJ0dzNfiAD-23" value="" style="image;sketch=0;aspect=fixed;html=1;points=[];align=center;fontSize=12;image=img/lib/mscae/VM_Linux.svg;labelBackgroundColor=none;fillColor=#B2C9AB;strokeColor=#788AA3;fontColor=#46495D;" vertex="1" parent="1">
          <mxGeometry x="930" y="198" width="50" height="46" as="geometry" />
        </mxCell>
        <mxCell id="obtDEicu6mAJ0dzNfiAD-57" value="" style="rounded=0;whiteSpace=wrap;html=1;" vertex="1" parent="1">
          <mxGeometry x="800" y="320" width="355" height="235.56" as="geometry" />
        </mxCell>
        <mxCell id="obtDEicu6mAJ0dzNfiAD-58" value="Cluster 1" style="pointerEvents=1;shadow=0;dashed=0;html=1;strokeColor=none;fillColor=#B2C9AB;labelPosition=center;verticalLabelPosition=bottom;verticalAlign=top;align=center;outlineConnect=0;shape=mxgraph.veeam.cluster;fontSize=20;labelBackgroundColor=none;fontColor=#46495D;" vertex="1" parent="1">
          <mxGeometry x="1030" y="347.24" width="102.8" height="49.2" as="geometry" />
        </mxCell>
        <mxCell id="obtDEicu6mAJ0dzNfiAD-59" value="Virtual Machine" style="rounded=0;whiteSpace=wrap;html=1;fillColor=#f5f5f5;fontColor=#333333;strokeColor=#666666;" vertex="1" parent="1">
          <mxGeometry x="835" y="380" width="170" height="160" as="geometry" />
        </mxCell>
        <mxCell id="obtDEicu6mAJ0dzNfiAD-60" value="" style="image;sketch=0;aspect=fixed;html=1;points=[];align=center;fontSize=12;image=img/lib/mscae/VM_Linux.svg;labelBackgroundColor=none;fillColor=#B2C9AB;strokeColor=#788AA3;fontColor=#46495D;" vertex="1" parent="1">
          <mxGeometry x="850" y="477.99999999999994" width="50" height="46" as="geometry" />
        </mxCell>
        <mxCell id="obtDEicu6mAJ0dzNfiAD-61" value="" style="image;sketch=0;aspect=fixed;html=1;points=[];align=center;fontSize=12;image=img/lib/mscae/VM_Linux.svg;labelBackgroundColor=none;fillColor=#B2C9AB;strokeColor=#788AA3;fontColor=#46495D;" vertex="1" parent="1">
          <mxGeometry x="850" y="396.44" width="50" height="46" as="geometry" />
        </mxCell>
        <mxCell id="obtDEicu6mAJ0dzNfiAD-62" value="" style="image;sketch=0;aspect=fixed;html=1;points=[];align=center;fontSize=12;image=img/lib/mscae/VM_Linux.svg;labelBackgroundColor=none;fillColor=#B2C9AB;strokeColor=#788AA3;fontColor=#46495D;" vertex="1" parent="1">
          <mxGeometry x="930" y="396.44" width="50" height="46" as="geometry" />
        </mxCell>
        <mxCell id="obtDEicu6mAJ0dzNfiAD-63" value="" style="image;sketch=0;aspect=fixed;html=1;points=[];align=center;fontSize=12;image=img/lib/mscae/VM_Linux.svg;labelBackgroundColor=none;fillColor=#B2C9AB;strokeColor=#788AA3;fontColor=#46495D;" vertex="1" parent="1">
          <mxGeometry x="930" y="477.99999999999994" width="50" height="46" as="geometry" />
        </mxCell>
        <mxCell id="obtDEicu6mAJ0dzNfiAD-64" value="" style="rounded=0;whiteSpace=wrap;html=1;" vertex="1" parent="1">
          <mxGeometry x="800" y="600" width="355" height="235.56" as="geometry" />
        </mxCell>
        <mxCell id="obtDEicu6mAJ0dzNfiAD-65" value="Cluster 1" style="pointerEvents=1;shadow=0;dashed=0;html=1;strokeColor=none;fillColor=#B2C9AB;labelPosition=center;verticalLabelPosition=bottom;verticalAlign=top;align=center;outlineConnect=0;shape=mxgraph.veeam.cluster;fontSize=20;labelBackgroundColor=none;fontColor=#46495D;" vertex="1" parent="1">
          <mxGeometry x="1030" y="627.24" width="102.8" height="49.2" as="geometry" />
        </mxCell>
        <mxCell id="obtDEicu6mAJ0dzNfiAD-66" value="Virtual Machine" style="rounded=0;whiteSpace=wrap;html=1;fillColor=#f5f5f5;fontColor=#333333;strokeColor=#666666;" vertex="1" parent="1">
          <mxGeometry x="835" y="660" width="170" height="160" as="geometry" />
        </mxCell>
        <mxCell id="obtDEicu6mAJ0dzNfiAD-67" value="" style="image;sketch=0;aspect=fixed;html=1;points=[];align=center;fontSize=12;image=img/lib/mscae/VM_Linux.svg;labelBackgroundColor=none;fillColor=#B2C9AB;strokeColor=#788AA3;fontColor=#46495D;" vertex="1" parent="1">
          <mxGeometry x="850" y="758" width="50" height="46" as="geometry" />
        </mxCell>
        <mxCell id="obtDEicu6mAJ0dzNfiAD-68" value="" style="image;sketch=0;aspect=fixed;html=1;points=[];align=center;fontSize=12;image=img/lib/mscae/VM_Linux.svg;labelBackgroundColor=none;fillColor=#B2C9AB;strokeColor=#788AA3;fontColor=#46495D;" vertex="1" parent="1">
          <mxGeometry x="850" y="676.44" width="50" height="46" as="geometry" />
        </mxCell>
        <mxCell id="obtDEicu6mAJ0dzNfiAD-69" value="" style="image;sketch=0;aspect=fixed;html=1;points=[];align=center;fontSize=12;image=img/lib/mscae/VM_Linux.svg;labelBackgroundColor=none;fillColor=#B2C9AB;strokeColor=#788AA3;fontColor=#46495D;" vertex="1" parent="1">
          <mxGeometry x="930" y="676.44" width="50" height="46" as="geometry" />
        </mxCell>
        <mxCell id="obtDEicu6mAJ0dzNfiAD-70" value="" style="image;sketch=0;aspect=fixed;html=1;points=[];align=center;fontSize=12;image=img/lib/mscae/VM_Linux.svg;labelBackgroundColor=none;fillColor=#B2C9AB;strokeColor=#788AA3;fontColor=#46495D;" vertex="1" parent="1">
          <mxGeometry x="930" y="758" width="50" height="46" as="geometry" />
        </mxCell>
        <mxCell id="obtDEicu6mAJ0dzNfiAD-75" style="edgeStyle=orthogonalEdgeStyle;rounded=0;orthogonalLoop=1;jettySize=auto;html=1;entryX=0;entryY=0.5;entryDx=0;entryDy=0;strokeColor=#FF0000;fontColor=#46495D;fillColor=#B2C9AB;strokeWidth=4;" edge="1" parent="1" source="obtDEicu6mAJ0dzNfiAD-11" target="obtDEicu6mAJ0dzNfiAD-66">
          <mxGeometry relative="1" as="geometry" />
        </mxCell>
        <mxCell id="obtDEicu6mAJ0dzNfiAD-76" style="edgeStyle=orthogonalEdgeStyle;rounded=0;orthogonalLoop=1;jettySize=auto;html=1;entryX=0;entryY=0.5;entryDx=0;entryDy=0;strokeColor=#FF0000;fontColor=#46495D;fillColor=#B2C9AB;strokeWidth=4;" edge="1" parent="1" source="obtDEicu6mAJ0dzNfiAD-11" target="obtDEicu6mAJ0dzNfiAD-59">
          <mxGeometry relative="1" as="geometry" />
        </mxCell>
        <mxCell id="obtDEicu6mAJ0dzNfiAD-56" value="C" style="edgeStyle=orthogonalEdgeStyle;rounded=0;orthogonalLoop=1;jettySize=auto;html=1;entryX=0;entryY=0.5;entryDx=0;entryDy=0;strokeColor=#FF0000;fontColor=#46495D;fillColor=#B2C9AB;strokeWidth=4;" edge="1" parent="1" source="obtDEicu6mAJ0dzNfiAD-11" target="obtDEicu6mAJ0dzNfiAD-54">
          <mxGeometry relative="1" as="geometry" />
        </mxCell>
        <mxCell id="obtDEicu6mAJ0dzNfiAD-80" value="CD" style="edgeLabel;html=1;align=center;verticalAlign=bottom;resizable=0;points=[];strokeColor=#788AA3;fontColor=#46495D;fillColor=#B2C9AB;fontSize=20;labelPosition=center;verticalLabelPosition=top;" vertex="1" connectable="0" parent="obtDEicu6mAJ0dzNfiAD-56">
          <mxGeometry x="-0.8836" y="1" relative="1" as="geometry">
            <mxPoint as="offset" />
          </mxGeometry>
        </mxCell>
        <mxCell id="obtDEicu6mAJ0dzNfiAD-81" value="Continuous Delivery" style="edgeLabel;html=1;align=left;verticalAlign=bottom;resizable=0;points=[];strokeColor=#788AA3;fontColor=#46495D;fillColor=#B2C9AB;labelPosition=right;verticalLabelPosition=top;textDirection=vertical-lr;fontSize=17;" vertex="1" connectable="0" parent="obtDEicu6mAJ0dzNfiAD-56">
          <mxGeometry x="-0.3631" y="1" relative="1" as="geometry">
            <mxPoint x="12" y="62" as="offset" />
          </mxGeometry>
        </mxCell>
        <mxCell id="obtDEicu6mAJ0dzNfiAD-85" style="edgeStyle=orthogonalEdgeStyle;rounded=0;orthogonalLoop=1;jettySize=auto;html=1;strokeColor=#788AA3;fontColor=#46495D;fillColor=#B2C9AB;strokeWidth=3;" edge="1" parent="1" source="obtDEicu6mAJ0dzNfiAD-77" target="obtDEicu6mAJ0dzNfiAD-84">
          <mxGeometry relative="1" as="geometry" />
        </mxCell>
        <mxCell id="obtDEicu6mAJ0dzNfiAD-77" value="Admin" style="shape=image;verticalLabelPosition=top;verticalAlign=bottom;imageAspect=0;aspect=fixed;image=data:image/svg+xml,PHN2ZyB4bWxucz0iaHR0cDovL3d3dy53My5vcmcvMjAwMC9zdmciIHZlcnNpb249IjEiIHZpZXdCb3g9IjAgMCA0OCA0OCIgZW5hYmxlLWJhY2tncm91bmQ9Im5ldyAwIDAgNDggNDgiPiYjeGE7ICAgIDxwb2x5Z29uIGZpbGw9IiNGRjk4MDAiIHBvaW50cz0iMjQsMzcgMTksMzEgMTksMjUgMjksMjUgMjksMzEiLz4mI3hhOyAgICA8ZyBmaWxsPSIjRkZBNzI2Ij4mI3hhOyAgICAgICAgPGNpcmNsZSBjeD0iMzMiIGN5PSIxOSIgcj0iMiIvPiYjeGE7ICAgICAgICA8Y2lyY2xlIGN4PSIxNSIgY3k9IjE5IiByPSIyIi8+JiN4YTsgICAgPC9nPiYjeGE7ICAgIDxwYXRoIGZpbGw9IiNGRkI3NEQiIGQ9Ik0zMywxM2MwLTcuNi0xOC01LTE4LDBjMCwxLjEsMCw1LjksMCw3YzAsNSw0LDksOSw5czktNCw5LTlDMzMsMTguOSwzMywxNC4xLDMzLDEzeiIvPiYjeGE7ICAgIDxwYXRoIGZpbGw9IiM0MjQyNDIiIGQ9Ik0yNCw0Yy02LjEsMC0xMCw0LjktMTAsMTFjMCwwLjgsMCwyLjMsMCwyLjNsMiwxLjd2LTVsMTItNGw0LDR2NWwyLTEuN2MwLDAsMC0xLjUsMC0yLjNjMC00LTEtOC02LTlsLTEtMiBIMjR6Ii8+JiN4YTsgICAgPGcgZmlsbD0iIzc4NDcxOSI+JiN4YTsgICAgICAgIDxjaXJjbGUgY3g9IjI4IiBjeT0iMTkiIHI9IjEiLz4mI3hhOyAgICAgICAgPGNpcmNsZSBjeD0iMjAiIGN5PSIxOSIgcj0iMSIvPiYjeGE7ICAgIDwvZz4mI3hhOyAgICA8cG9seWdvbiBmaWxsPSIjZmZmIiBwb2ludHM9IjI0LDQzIDE5LDMxIDI0LDMyIDI5LDMxIi8+JiN4YTsgICAgPHBvbHlnb24gZmlsbD0iI0QzMkYyRiIgcG9pbnRzPSIyMywzNSAyMi4zLDM5LjUgMjQsNDMuNSAyNS43LDM5LjUgMjUsMzUgMjYsMzQgMjQsMzIgMjIsMzQiLz4mI3hhOyAgICA8cGF0aCBmaWxsPSIjNTQ2RTdBIiBkPSJNMjksMzFMMjksMzFsLTUsMTJsLTUtMTJjMCwwLTExLDItMTEsMTNoMzJDNDAsMzMsMjksMzEsMjksMzF6Ii8+JiN4YTs8L3N2Zz4=;labelBackgroundColor=none;fillColor=#B2C9AB;strokeColor=#788AA3;fontColor=#46495D;fontSize=20;labelPosition=center;align=center;" vertex="1" parent="1">
          <mxGeometry x="-171.29" y="89.99999999999983" width="82.44" height="82.44" as="geometry" />
        </mxCell>
        <mxCell id="obtDEicu6mAJ0dzNfiAD-87" style="edgeStyle=orthogonalEdgeStyle;rounded=0;orthogonalLoop=1;jettySize=auto;html=1;entryX=0;entryY=0.5;entryDx=0;entryDy=0;strokeColor=#788AA3;fontColor=#46495D;fillColor=#B2C9AB;strokeWidth=3;" edge="1" parent="1" source="obtDEicu6mAJ0dzNfiAD-84" target="obtDEicu6mAJ0dzNfiAD-1">
          <mxGeometry relative="1" as="geometry" />
        </mxCell>
        <mxCell id="obtDEicu6mAJ0dzNfiAD-84" value="Management VM" style="image;sketch=0;aspect=fixed;html=1;points=[];align=center;fontSize=20;image=img/lib/mscae/VM_Linux_Non_Azure.svg;strokeColor=#788AA3;fontColor=#46495D;fillColor=#B2C9AB;" vertex="1" parent="1">
          <mxGeometry x="-186.35" y="415.78" width="112.57" height="103.56" as="geometry" />
        </mxCell>
      </root>
    </mxGraphModel>
  </diagram>
</mxfile>
